<?xml version="1.0" standalone="no"?><!DOCTYPE svg PUBLIC "-//W3C//DTD SVG 1.1//EN" "http://www.w3.org/Graphics/SVG/1.1/DTD/svg11.dtd"><svg t="1504861854242" class="icon" style="" viewBox="0 0 1024 1024" version="1.1" xmlns="http://www.w3.org/2000/svg" p-id="3243" xmlns:xlink="http://www.w3.org/1999/xlink" width="20" height="20"><defs><style type="text/css"></style></defs><path d="M600.432587 610.831936c0-122.549104 144.350642-293.473985 144.350642-377.457748 0-91.406826-74.105788-165.547407-165.549453-165.547407-91.437525 0-165.54843 74.141604-165.54843 165.547407 0 91.441619 144.353712 254.471692 144.353712 377.457748L600.432587 610.831936zM506.471588 233.373165c0-40.176025 32.585139-72.762187 72.761164-72.762187 40.183188 0 72.76628 32.586163 72.76628 72.762187 0 40.180118-32.584116 72.765257-72.76628 72.765257C539.056728 306.139445 506.471588 273.553283 506.471588 233.373165zM780.628622 152.61691c8.701173 21.63474 13.907755 44.981471 15.186887 69.369927l93.018533-46.52871 0 637.338636-139.817396 69.90614-41.252543-17.672498c-28.79993-160.415526-122.923634-189.162244-197.329251-189.162244-18.679431 0-33.292244 21.701255-68.796876 1.710968-59.96779-33.759895-40.715307-126.44483-137.598868-131.854027-57.355289-57.354266-129.962957-68.793806-171.999352-70.059636L132.039757 168.473039l144.885831 62.080917c8.670473 3.728928 17.906835 5.575995 27.112498 5.575995 10.54517 0 21.096481-2.419096 30.769794-7.255241l28.215622-14.110369c2.861164-33.291221 13.270235-64.332191 29.500894-91.675956l-88.48631 44.24162L63.237765 64.130599l0 412.797627 0 378.398166 240.800321 103.198383 206.396767-103.198383 205.493188 88.080058c0-0.00614-0.004093-0.010233-0.004093-0.014326l35.310204 15.131629L957.633988 855.326393 957.633988 64.130599 780.628622 152.61691z" p-id="3244"></path></svg>
