<?xml version="1.0" standalone="no"?><!DOCTYPE svg PUBLIC "-//W3C//DTD SVG 1.1//EN" "http://www.w3.org/Graphics/SVG/1.1/DTD/svg11.dtd"><svg t="1504755435503" class="icon" style="" viewBox="0 0 1060 1024" version="1.1" xmlns="http://www.w3.org/2000/svg" p-id="4861" xmlns:xlink="http://www.w3.org/1999/xlink" width="207.03125" height="200"><defs><style type="text/css"></style></defs><path d="M327.02976 327.66464c-1.14688 0-2.3296-0.07168-3.54304-0.22528l-13.80864 0 0 50.64192 28.00128 0L337.67936 558.08l410.63936 0 0-38.64064-153.99936 0 0-37.36064 153.99936 0L748.31872 445.44l-153.99936 0 0-39.36256 153.99936 0 0-40.64256-153.99936 0 0-37.36064 156.00128 0 0-40.64256-157.69088 0 3.99872-19.99872-60.33408 0-3.99872 19.99872L419.67616 287.43168l6.00064-19.99872-51.2 0-23.51104 41.6C344.9856 324.41344 334.67392 327.66464 327.02976 327.66464zM396.31872 343.63392l9.33376-15.55456 130.02752 0 0 37.36064L396.31872 365.44 396.31872 343.63392zM394.3168 406.08256l139.36128 0L533.67808 445.44 394.3168 445.44 394.3168 406.08256zM394.3168 482.07872l139.36128 0 0 37.36064L394.3168 519.43936 394.3168 482.07872z" p-id="4862"></path><path d="M750.32576 667.392l-0.01024-79.9488L335.67744 587.4432l0 116.63872 370.15552 0C744.19712 702.47936 749.60384 682.37824 750.32576 667.392zM695.67488 657.76128c0 6.30784-4.10624 13.68064-15.68256 13.68064L390.31808 671.44192l0-43.36128 305.3568 0L695.67488 657.76128z" p-id="4863"></path><path d="M525.99808 0.03072l-409.6 133.96992 2.06848 521.69216 0.46592 5.65248c0.74752 3.42528 16.50688 86.30784 95.31904 166.144 60.60032 61.54752 209.19808 141.94688 272.6144 176.25088 9.9584 5.41184 17.38752 9.40032 21.66784 11.84256L523.5712 1024l18.49344-9.66656c37.0688-18.71872 225.5872-115.69152 295.63904-186.72128 78.89408-79.91808 94.65344-162.80064 95.31904-166.22592l2.57536-527.34464L525.99808 0.03072zM870.54336 652.1088c-2.97472 12.16-19.93216 72.21248-77.4144 130.49344-58.39872 59.30496-221.97248 145.45408-268.4672 169.344-2.45248-1.3056-5.12-2.69312-7.93088-4.224-55.74656-30.16192-203.76064-110.23872-257.78688-165.12-57.64096-58.36288-74.48064-118.33344-77.45536-130.49344l-1.87904-471.83872 346.38336-113.36192 346.38336 113.3568L870.54336 652.1088z" p-id="4864"></path></svg>