<?xml version="1.0" standalone="no"?><!DOCTYPE svg PUBLIC "-//W3C//DTD SVG 1.1//EN" "http://www.w3.org/Graphics/SVG/1.1/DTD/svg11.dtd"><svg t="1504755630458" class="icon" style="" viewBox="0 0 1024 1024" version="1.1" xmlns="http://www.w3.org/2000/svg" p-id="6522" xmlns:xlink="http://www.w3.org/1999/xlink" width="200" height="200"><defs><style type="text/css"></style></defs><path d="M774.574598 285.189168c-19.749375 0-35.81493 16.270211-35.81493 36.326571l0 571.810932c0 20.056361 15.963226 36.326571 35.81493 36.326571 19.749375 0 35.81493-16.270211 35.81493-36.326571L810.389527 321.515739C810.287199 301.459378 794.323973 285.189168 774.574598 285.189168L774.574598 285.189168zM547.81493 499.976417 285.240332 499.976417c-13.20036 0-23.84251 10.64215-23.84251 23.84251L261.397822 547.763765c0 13.20036 10.64215 23.84251 23.84251 23.84251l262.574598 0c13.20036 0 23.84251-10.64215 23.84251-23.84251l0-23.84251C571.65744 510.720895 560.912961 499.976417 547.81493 499.976417L547.81493 499.976417zM547.81493 356.819027 285.240332 356.819027c-13.20036 0-23.84251 10.64215-23.84251 23.84251L261.397822 404.504047c0 13.20036 10.64215 23.84251 23.84251 23.84251l262.574598 0c13.20036 0 23.84251-10.744479 23.84251-23.84251l0-23.84251C571.65744 367.461177 560.912961 356.819027 547.81493 356.819027L547.81493 356.819027zM870.046967 404.504047c-19.749375 0-35.81493 16.065554-35.81493 35.917258l0 453.31468c0 19.851704 15.963226 35.917258 35.81493 35.917258 19.749375 0 35.81493-16.065554 35.81493-35.917258l0-453.31468C905.759568 420.569601 889.796343 404.504047 870.046967 404.504047L870.046967 404.504047zM634.487059 94.244429l-436.942141 0c-43.796542 0-79.406815 35.610273-79.406815 79.406815l0 676.492855c0 43.796542 35.610273 79.406815 79.406815 79.406815l436.942141 0c43.796542 0 79.406815-35.610273 79.406815-79.406815L713.893874 173.651244C713.893874 129.854702 678.283601 94.244429 634.487059 94.244429L634.487059 94.244429zM666.208854 802.459079c0 43.796542-35.610273 79.406815-79.406815 79.406815L245.332267 881.865894c-43.796542 0-79.406815-35.610273-79.406815-79.406815L165.925452 221.438593c0-43.796542 35.610273-79.406815 79.406815-79.406815l341.469771 0c43.796542 0 79.406815 35.610273 79.406815 79.406815L666.208854 802.459079 666.208854 802.459079zM547.81493 643.236135 285.240332 643.236135c-13.20036 0-23.84251 10.64215-23.84251 23.84251l0 23.84251c0 13.20036 10.64215 23.84251 23.84251 23.84251l262.574598 0c13.20036 0 23.84251-10.64215 23.84251-23.84251l0-23.84251C571.65744 653.878285 560.912961 643.236135 547.81493 643.236135L547.81493 643.236135z" p-id="6523"></path></svg>