<?xml version="1.0" standalone="no"?><!DOCTYPE svg PUBLIC "-//W3C//DTD SVG 1.1//EN" "http://www.w3.org/Graphics/SVG/1.1/DTD/svg11.dtd"><svg t="1504755347024" class="icon" style="" viewBox="0 0 1024 1024" version="1.1" xmlns="http://www.w3.org/2000/svg" p-id="3525" xmlns:xlink="http://www.w3.org/1999/xlink" width="20" height="20"><defs><style type="text/css"></style></defs><path d="M516.654545 186.181818h-423.563636c-27.927273 0-46.545455 23.272727-46.545454 46.545455v423.563636c0 27.927273 23.272727 46.545455 46.545454 46.545455h55.854546c0-83.781818 69.818182-153.6 153.6-153.6s153.6 69.818182 153.6 153.6h55.854545c27.927273 0 46.545455-23.272727 46.545455-46.545455V232.727273c4.654545-27.927273-13.963636-46.545455-41.89091-46.545455zM879.709091 339.781818h-209.454546c-27.927273 0-51.2 23.272727-51.2 51.2v256c0 27.927273 23.272727 51.2 51.2 51.2h4.654546c13.963636-60.509091 65.163636-102.4 125.672727-102.4 60.509091 0 116.363636 46.545455 125.672727 102.4h4.654546c27.927273 0 51.2-23.272727 51.2-51.2v-148.945454l-102.4-158.254546z m-162.909091 209.454546v-153.6h125.672727l93.090909 153.6h-218.763636z" fill="yellow" p-id="3526"></path><path d="M307.2 702.836364m-102.4 0a102.4 102.4 0 1 0 204.8 0 102.4 102.4 0 1 0-204.8 0Z" fill="yellow" p-id="3527"></path><path d="M795.927273 730.763636m-79.127273 0a79.127273 79.127273 0 1 0 158.254545 0 79.127273 79.127273 0 1 0-158.254545 0Z" fill="yellow" p-id="3528"></path></svg>
