<?xml version="1.0" standalone="no"?><!DOCTYPE svg PUBLIC "-//W3C//DTD SVG 1.1//EN" "http://www.w3.org/Graphics/SVG/1.1/DTD/svg11.dtd"><svg t="1504755516799" class="icon" fill='yellow' style="" viewBox="0 0 1024 1024" version="1.1" xmlns="http://www.w3.org/2000/svg" p-id="5531" xmlns:xlink="http://www.w3.org/1999/xlink" width="20" height="20"><defs><style type="text/css"></style></defs><path d="M605.055604 617.482403l0-29.258371c32.675506-20.367887 54.274291-55.310723 54.274291-94.931093L659.329895 389.701606c0-62.702064-54.108509-113.714901-120.62409-113.714901l-47.505867 0c-66.528885 0-120.637394 51.011814-120.637394 113.714901l0 103.591333c0 39.624463 21.603902 74.569346 54.287595 94.936209l0 22.715351c-99.098986 42.107003-170.427374 157.322072-170.427374 292.504914 0 26.819832 23.05194 48.549739 51.481574 48.549739l404.053658 0c28.442938 0 51.494878-21.729907 51.494878-48.549739C761.453898 774.735913 696.78853 664.122653 605.055604 617.482403zM877.462688 365.890294C847.411047 195.336874 689.794969 64.843844 508.419817 64.843844c-184.728664 0-341.094211 128.467907-368.93542 300.758901-31.697185 5.845125-53.961147 19.422352-53.961147 35.171034l0 259.46031c0 21.070898 39.804149 38.234813 88.740656 38.234813 48.895574 0 88.645485-17.163915 88.645485-38.234813l0-48.451502c4.100556 0.552585 8.456949 0.850367 12.969914 0.850367 24.070171 0 43.696965-8.43102 43.696965-18.815531L319.57627 467.189422c0-10.370185-19.626794-18.815531-43.696965-18.815531-4.512965 0-8.869358 0.298805-12.969914 0.851391l0-48.452525c0-15.560394-21.709307-29.000498-52.772016-34.958186C234.176845 226.270397 360.075272 122.594129 508.419817 122.594129c145.129185 0 271.618083 104.575754 298.154524 242.142899-34.667965 5.466502-59.397172 19.485797-59.397172 35.843346l0 47.900963c-2.077397-0.122797-4.197774-0.190335-6.353969-0.190335-24.854056 0-45.114302 8.417717-45.114302 18.786878l0 126.835733c0 10.355859 20.260246 18.773576 45.114302 18.773576 2.156195 0 4.276572-0.066515 6.353969-0.190335l0 47.860031c0 21.084201 41.083334 38.275745 91.588634 38.275745 50.490973 0 91.52007-17.191544 91.52007-38.275745l0-259.776512C930.285872 385.27069 908.646152 372.006596 877.462688 365.890294zM263.638015 467.189422c0-3.548826 5.597714-6.547113 12.24129-6.547113 6.697813 0 12.323158 2.998287 12.323158 6.547113l0 126.628002c0 3.562129-5.625345 6.547113-12.323158 6.547113-6.643576 0-12.24129-2.984984-12.24129-6.547113L263.638015 467.189422zM747.177168 599.50496c-1.883984 0.567935-4.054505 0.901533-6.353969 0.901533-6.918857 0-12.723287-2.957355-12.723287-6.491855L728.099912 467.078905c0-3.5345 5.804431-6.505158 12.723287-6.505158 2.299463 0 4.469985 0.334621 6.353969 0.904603L747.177168 599.50496zM200.232388 660.233066c0 7.427156-11.897445 13.712303-25.967459 13.712303-14.111971 0-26.076957-6.28617-26.076957-13.712303L148.187972 400.834154c0.606845 0.104377 1.221878 0.188288 1.856354 0.228197 7.536959 0.591471 15.088245-4.428869 15.733977-11.098779l0.23537-2.149966c2.607491-0.475837 5.383834-0.738827 8.251256-0.738827 1.291465 0 2.563487 0.054235 3.809925 0.155543 0.477904 5.948479 6.186139 10.830673 13.575736 11.259438 2.640238 0 5.222145-0.548492 7.510352-1.520633 0.692807 1.213641 1.072469 2.490727 1.072469 3.803629L200.233411 660.233066zM508.419817 98.387821c-163.109411 0-301.343276 112.702851-327.287198 264.264733-2.266716-0.075725-4.557993-0.113587-6.868713-0.113587-1.576979 0-3.143725 0.01842-4.701261 0.054235C198.130431 205.457372 340.653148 89.049129 508.419817 89.049129c164.503211 0 307.885541 117.948319 338.792701 273.405927-2.783507-0.107447-5.599761-0.164752-8.447739-0.164752-1.015161 0-2.025206 0.00921-3.032181 0.023536C807.517867 212.520231 668.374246 98.387821 508.419817 98.387821zM865.58571 660.356886c0 7.427156-12.267897 13.712303-26.819908 13.712303-14.565314 0-26.889495-6.28617-26.889495-13.712303l0-259.776512c0-1.805112 0.732717-3.541663 2.04465-5.140067 2.695499 2.420119 6.552498 3.916193 10.761529 3.916193 0.412409 0 0.852449-0.041956 1.292489-0.068562 7.781539-0.571005 13.571643-6.068206 13.318876-12.426007 4.294992 0.045025 8.379174 0.635473 11.992617 1.641383 0.096195 0.841158 0.209786 1.677199 0.299841 2.51938 0.643686 6.130627 6.745911 10.794857 14.001449 11.022031L865.587757 660.356886z" p-id="5532"></path></svg>
