<?xml version="1.0" standalone="no"?><!DOCTYPE svg PUBLIC "-//W3C//DTD SVG 1.1//EN" "http://www.w3.org/Graphics/SVG/1.1/DTD/svg11.dtd"><svg t="1504755545512" class="icon" fill='yellow' style="" viewBox="0 0 1024 1024" version="1.1" xmlns="http://www.w3.org/2000/svg" p-id="6192" xmlns:xlink="http://www.w3.org/1999/xlink" width="20" height="20"><defs><style type="text/css"></style></defs><path d="M511.535419 68.556399c-246.043742 0-445.497377 199.454658-445.497377 445.49226 0 246.042719 199.453634 445.496353 445.497377 445.496353 246.037603 0 445.491237-199.453634 445.491237-445.496353C957.026656 268.011057 757.573021 68.556399 511.535419 68.556399zM708.061374 425.735287l0 69.102844c0 16.909112-9.68457 31.667234-23.77038 39.012526l0 135.076418-35.506678 0-13.049201-85.489046-13.022595 85.489046-32.613792 0L590.098729 546.968419c13.348006-13.044084 21.245883-31.098275 21.245883-50.359968l0-75.213006c0-14.153348-4.194532-27.343765-11.4334-38.403658 3.26537-0.784876 6.662747-1.200338 10.147104-1.200338l54.078663 0C688.293145 381.790426 708.061374 401.576051 708.061374 425.735287zM635.82619 280.827967c25.557072 0 46.267766 20.710694 46.267766 46.267766 0 25.552979-20.710694 46.284139-46.267766 46.284139-25.569352 0-46.279023-20.73116-46.279023-46.284139C589.546144 301.537637 610.256838 280.827967 635.82619 280.827967zM512.292666 263.709077c27.823696 0 50.354851 22.531156 50.354851 50.358945 0 27.807323-22.531156 50.354851-50.354851 50.354851-27.807323 0-50.358945-22.547529-50.358945-50.354851C461.933721 286.240233 484.486366 263.709077 512.292666 263.709077zM433.663864 421.394423c0-26.28976 21.533432-47.800679 47.823192-47.800679l58.826803 0c26.302039 0 47.818075 21.51092 47.818075 47.800679l0 75.213006c0 18.47784-10.632151 34.600029-26.092261 42.548048L562.039673 686.048011 526.566764 686.048011l-14.20656-93.031836-14.18814 93.03593-38.635949 0L459.536115 539.049053c-15.332197-7.986905-25.874297-24.035416-25.874297-42.440601L433.661817 421.394423zM386.53959 280.827967c25.557072 0 46.285163 20.710694 46.285163 46.267766 0 25.552979-20.72809 46.284139-46.285163 46.284139-25.552979 0-46.267766-20.73116-46.267766-46.284139C340.271824 301.537637 360.986611 280.827967 386.53959 280.827967zM314.308499 425.735287c0-24.159236 19.764136-43.944861 43.923372-43.944861l54.074569 0c3.488451 0 6.882757 0.415462 10.151197 1.200338-7.236821 11.059893-11.43647 24.25031-11.43647 38.403658l0 75.213006c0 19.262716 7.897877 37.315884 21.249977 50.359968L432.271144 668.928099l-32.610722 0-13.048177-85.489046-13.044084 85.489046-35.490306 0 0-135.076418c-14.080693-7.345292-23.77038-22.103414-23.77038-39.012526L314.307476 425.735287zM511.526209 764.394381c-140.584875 0-254.561743-35.151591-254.561743-78.504982 0-18.24555 20.175505-35.021631 54.019311-48.358381-8.111748 5.64865-12.541641 11.725042-12.541641 18.050098 0 29.451776 95.388511 53.290717 213.085096 53.290717 117.692492 0 213.098399-23.838941 213.098399-53.290717 0-6.325056-4.430916-12.401448-12.564154-18.050098 33.847899 13.33675 54.039777 30.112832 54.039777 48.358381C766.100232 729.242789 652.127458 764.394381 511.526209 764.394381z" p-id="6193"></path></svg>
