<?xml version="1.0" standalone="no"?><!DOCTYPE svg PUBLIC "-//W3C//DTD SVG 1.1//EN" "http://www.w3.org/Graphics/SVG/1.1/DTD/svg11.dtd"><svg t="1504755649061" class="icon" style="" viewBox="0 0 1024 1024" version="1.1" xmlns="http://www.w3.org/2000/svg" p-id="6974" xmlns:xlink="http://www.w3.org/1999/xlink" width="20" height="20"><defs><style type="text/css"></style></defs><path d="M803.95264 893.7216a23.79776 23.79776 0 0 0 23.76704-23.77728c0-13.1072-10.65472-23.77216-23.76704-23.77216s-23.7824 10.66496-23.7824 23.77216a23.81824 23.81824 0 0 0 23.7824 23.77728z" fill="yellow" p-id="6975"></path><path d="M921.55392 472.01792h-235.20256c-19.77856 0-35.87584 16.1024-35.87584 35.8912v394.71616c0 19.78368 16.09728 35.88608 35.87584 35.88608h235.20256c19.78368 0 35.88608-16.10752 35.88608-35.88608V507.90912c0-19.7888-16.1024-35.8912-35.88608-35.8912z m11.96032 430.60736a11.9808 11.9808 0 0 1-11.96032 11.96544h-235.20256a11.97568 11.97568 0 0 1-11.9552-11.96544v-73.02656h259.11808v73.02656z m0-99.00544h-259.11808V507.90912a11.9808 11.9808 0 0 1 11.9552-11.97056h235.20256a11.99616 11.99616 0 0 1 11.96032 11.97056v295.71072z" fill="yellow" p-id="6976"></path><path d="M649.91744 515.39456l-51.07712 51.072c-43.26912 43.26912-113.67424 43.26912-156.97408-0.03072a117.0688 117.0688 0 0 1-3.4048-3.57376 26.83904 26.83904 0 0 1-6.23616-7.44448c-0.14336-0.18944-0.29184-0.3584-0.43008-0.54784l0.08704-0.0768a26.58304 26.58304 0 0 1 36.16768-35.81952c0.69632-0.7424 7.66976 6.20544 11.37152 9.91232l0.03072 0.03072c22.59968 22.59456 59.05408 22.77376 81.65888 0.1792l111.36512-111.37024c22.59968-22.59456 22.59968-59.2384 0-81.83296l-0.03584-0.03072c-22.59456-22.59456-59.22816-22.59456-81.82784 0l-67.0464 67.04128c-23.19872-11.34592-50.6368-11.78112-74.11712-0.98816l103.59808-103.6032c43.27936-43.264 113.67936-43.264 156.97408 0.03072 43.26912 43.264 43.26912 113.67936 0 156.94336l-16.256 16.26112h228.81792c0.53248 0 1.04448 0.0512 1.57184 0.0768-20.37248-218.40896-204.09856-389.39136-427.8272-389.39136C258.97472 82.2272 66.56 274.64192 66.56 512s192.41472 429.7728 429.7728 429.7728a428.47744 428.47744 0 0 0 154.85952-28.8768 34.81088 34.81088 0 0 1-1.27488-9.2416v-388.25984z m-210.304 210.29376c-43.27424 43.27424-113.67424 43.27424-156.97408-0.03072-43.26912-43.264-43.26912-113.67424 0-156.93824L393.82528 457.5232c43.26912-43.25888 113.67424-43.25888 156.97408 0.03584 1.17248 1.17248 2.29376 2.37568 3.39968 3.584a26.8032 26.8032 0 0 1 6.2464 7.43424c0.13312 0.18944 0.28672 0.36352 0.42496 0.54272l-0.08192 0.08192a26.60352 26.60352 0 0 1-4.70528 31.24736 26.60864 26.60864 0 0 1-31.46752 4.57728c-0.70144 0.73728-7.66976-6.20544-11.37152-9.9072l-0.03072-0.03584c-22.59968-22.59456-59.05408-22.77888-81.65376-0.1792l-111.36512 111.37024c-22.59968 22.59968-22.59968 59.23328 0 81.83296l0.03072 0.03072c22.59968 22.59968 59.2384 22.59968 81.83296 0l67.0464-67.04128a86.59968 86.59968 0 0 0 74.11712 0.98816l-103.60832 103.6032z" fill="yellow" p-id="6977"></path></svg>
